<svg xmlns="http://www.w3.org/2000/svg" viewBox="0 0 120 120" width="120" height="120">
  <!-- Background circle with gradient -->
  <defs>
    <linearGradient id="bgGradient" x1="0%" y1="0%" x2="100%" y2="100%">
      <stop offset="0%" style="stop-color:#007bff;stop-opacity:0.1" />
      <stop offset="100%" style="stop-color:#007bff;stop-opacity:0.05" />
    </linearGradient>
    <linearGradient id="mainGradient" x1="0%" y1="0%" x2="100%" y2="100%">
      <stop offset="0%" style="stop-color:#007bff" />
      <stop offset="50%" style="stop-color:#0056b3" />
      <stop offset="100%" style="stop-color:#004085" />
    </linearGradient>
    <linearGradient id="accentGradient" x1="0%" y1="0%" x2="100%" y2="100%">
      <stop offset="0%" style="stop-color:#28a745" />
      <stop offset="100%" style="stop-color:#20c997" />
    </linearGradient>
  </defs>
  
  <!-- Background circle -->
  <circle cx="60" cy="60" r="55" fill="url(#bgGradient)" stroke="url(#mainGradient)" stroke-width="2"/>
  
  <!-- Main AI brain/processor icon -->
  <g transform="translate(60,60)">
    <!-- Central processor -->
    <rect x="-18" y="-18" width="36" height="36" rx="8" fill="url(#mainGradient)"/>
    
    <!-- Circuit patterns -->
    <rect x="-12" y="-12" width="24" height="4" rx="2" fill="white" opacity="0.3"/>
    <rect x="-12" y="-4" width="24" height="4" rx="2" fill="white" opacity="0.3"/>
    <rect x="-12" y="4" width="24" height="4" rx="2" fill="white" opacity="0.3"/>
    <rect x="-12" y="12" width="12" height="4" rx="2" fill="white" opacity="0.3"/>
    
    <!-- Tool icons around the processor -->
    <!-- Image tool (top-left) -->
    <g transform="translate(-35,-25)">
      <rect x="0" y="0" width="16" height="12" rx="2" fill="url(#accentGradient)" opacity="0.8"/>
      <circle cx="4" cy="4" r="2" fill="white" opacity="0.6"/>
      <polygon points="6,8 10,6 14,10 6,10" fill="white" opacity="0.6"/>
    </g>
    
    <!-- Music tool (top-right) -->
    <g transform="translate(19,-25)">
      <circle cx="8" cy="6" r="7" fill="url(#accentGradient)" opacity="0.8"/>
      <path d="M5,4 L11,2 L11,10 L5,12 Z" fill="white" opacity="0.6"/>
      <circle cx="5" cy="10" r="2" fill="white" opacity="0.6"/>
    </g>
    
    <!-- Code/AI tool (bottom-left) -->
    <g transform="translate(-35,13)">
      <rect x="0" y="0" width="16" height="12" rx="2" fill="url(#accentGradient)" opacity="0.8"/>
      <path d="M3,3 L6,6 L3,9 M13,3 L10,6 L13,9" stroke="white" stroke-width="1.5" fill="none" opacity="0.6"/>
    </g>
    
    <!-- Settings/Tools (bottom-right) -->
    <g transform="translate(19,13)">
      <circle cx="8" cy="6" r="7" fill="url(#accentGradient)" opacity="0.8"/>
      <circle cx="8" cy="6" r="3" fill="none" stroke="white" stroke-width="1.5" opacity="0.6"/>
      <line x1="8" y1="1" x2="8" y2="3" stroke="white" stroke-width="1.5" opacity="0.6"/>
      <line x1="8" y1="9" x2="8" y2="11" stroke="white" stroke-width="1.5" opacity="0.6"/>
      <line x1="13" y1="6" x2="11" y2="6" stroke="white" stroke-width="1.5" opacity="0.6"/>
      <line x1="5" y1="6" x2="3" y2="6" stroke="white" stroke-width="1.5" opacity="0.6"/>
    </g>
    
    <!-- Connection lines -->
    <line x1="-18" y1="-18" x2="-25" y2="-18" stroke="url(#mainGradient)" stroke-width="2" opacity="0.4"/>
    <line x1="18" y1="-18" x2="25" y2="-18" stroke="url(#mainGradient)" stroke-width="2" opacity="0.4"/>
    <line x1="-18" y1="18" x2="-25" y2="18" stroke="url(#mainGradient)" stroke-width="2" opacity="0.4"/>
    <line x1="18" y1="18" x2="25" y2="18" stroke="url(#mainGradient)" stroke-width="2" opacity="0.4"/>
  </g>
</svg>